<mxfile host="app.diagrams.net" modified="2023-10-15T13:56:38.889Z" agent="Mozilla/5.0 (Windows NT 10.0; Win64; x64) AppleWebKit/537.36 (KHTML, like Gecko) Chrome/118.0.0.0 Safari/537.36" etag="2a_-p9oMBGBun_iloieO" version="22.0.4" type="github">
  <diagram name="Page-1" id="zB_I1wsIQ56pGqQ2V1rR">
    <mxGraphModel dx="1100" dy="613" grid="1" gridSize="10" guides="1" tooltips="1" connect="1" arrows="1" fold="1" page="1" pageScale="1" pageWidth="1920" pageHeight="1200" math="0" shadow="0">
      <root>
        <mxCell id="0" />
        <mxCell id="1" parent="0" />
        <mxCell id="jdVaecQ7j_w1OCTPGQky-2" value="&lt;font face=&quot;Garamond&quot; style=&quot;font-size: 20px;&quot;&gt;&lt;b&gt;Environmental Factors&lt;/b&gt;&lt;/font&gt;" style="text;html=1;align=center;verticalAlign=middle;resizable=0;points=[];autosize=1;strokeColor=none;fillColor=none;" vertex="1" parent="1">
          <mxGeometry x="850" width="220" height="40" as="geometry" />
        </mxCell>
        <mxCell id="jdVaecQ7j_w1OCTPGQky-4" value="&lt;font style=&quot;font-size: 18px;&quot; face=&quot;Garamond&quot;&gt;Forest Area &lt;/font&gt;" style="rounded=1;whiteSpace=wrap;html=1;fillColor=#d5e8d4;strokeColor=#82b366;" vertex="1" parent="1">
          <mxGeometry x="420" y="173" width="155" height="60" as="geometry" />
        </mxCell>
        <mxCell id="jdVaecQ7j_w1OCTPGQky-5" value="&lt;font face=&quot;Garamond&quot; style=&quot;font-size: 18px;&quot;&gt;Biodiversity&amp;nbsp;&lt;/font&gt;" style="rounded=1;whiteSpace=wrap;html=1;fillColor=#d5e8d4;strokeColor=#82b366;align=center;" vertex="1" parent="1">
          <mxGeometry x="780" y="233" width="155" height="60" as="geometry" />
        </mxCell>
        <mxCell id="jdVaecQ7j_w1OCTPGQky-6" value="&lt;font style=&quot;font-size: 18px;&quot; face=&quot;Garamond&quot;&gt;Climate Change&lt;/font&gt;" style="rounded=1;whiteSpace=wrap;html=1;fillColor=#d5e8d4;strokeColor=#82b366;" vertex="1" parent="1">
          <mxGeometry x="1190" y="423" width="155" height="60" as="geometry" />
        </mxCell>
        <mxCell id="jdVaecQ7j_w1OCTPGQky-7" value="&lt;font style=&quot;font-size: 18px;&quot; face=&quot;Garamond&quot;&gt;Deforestation&lt;/font&gt;" style="rounded=1;whiteSpace=wrap;html=1;fillColor=#d5e8d4;strokeColor=#82b366;" vertex="1" parent="1">
          <mxGeometry x="1410" y="303" width="155" height="60" as="geometry" />
        </mxCell>
        <mxCell id="jdVaecQ7j_w1OCTPGQky-8" value="&lt;font style=&quot;font-size: 18px;&quot; face=&quot;Garamond&quot;&gt;Biodiversity Loss&lt;/font&gt;" style="rounded=1;whiteSpace=wrap;html=1;fillColor=#d5e8d4;strokeColor=#82b366;" vertex="1" parent="1">
          <mxGeometry x="1070" y="210" width="155" height="60" as="geometry" />
        </mxCell>
        <mxCell id="jdVaecQ7j_w1OCTPGQky-9" value="&lt;font face=&quot;Garamond&quot; style=&quot;font-size: 18px;&quot;&gt;Conservation Priorities&lt;/font&gt;" style="rounded=1;whiteSpace=wrap;html=1;fillColor=#d5e8d4;strokeColor=#82b366;" vertex="1" parent="1">
          <mxGeometry x="1080" y="113" width="155" height="60" as="geometry" />
        </mxCell>
        <mxCell id="jdVaecQ7j_w1OCTPGQky-10" value="&lt;font style=&quot;font-size: 18px;&quot; face=&quot;Garamond&quot;&gt;Conservation Practices&lt;/font&gt;" style="rounded=1;whiteSpace=wrap;html=1;fillColor=#d5e8d4;strokeColor=#82b366;" vertex="1" parent="1">
          <mxGeometry x="1410" y="113" width="155" height="60" as="geometry" />
        </mxCell>
        <mxCell id="jdVaecQ7j_w1OCTPGQky-16" value="&lt;font style=&quot;font-size: 18px;&quot; face=&quot;Garamond&quot;&gt;Habitat Loss&lt;/font&gt;" style="rounded=1;whiteSpace=wrap;html=1;fillColor=#d5e8d4;strokeColor=#82b366;" vertex="1" parent="1">
          <mxGeometry x="1070" y="333" width="155" height="60" as="geometry" />
        </mxCell>
        <mxCell id="jdVaecQ7j_w1OCTPGQky-20" value="" style="curved=1;endArrow=classic;html=1;rounded=0;entryX=0.25;entryY=0;entryDx=0;entryDy=0;endFill=1;startArrow=classic;startFill=1;exitX=1;exitY=0;exitDx=0;exitDy=0;" edge="1" parent="1" source="jdVaecQ7j_w1OCTPGQky-4" target="jdVaecQ7j_w1OCTPGQky-10">
          <mxGeometry width="50" height="50" relative="1" as="geometry">
            <mxPoint x="610" y="153" as="sourcePoint" />
            <mxPoint x="1420" y="73" as="targetPoint" />
            <Array as="points">
              <mxPoint x="620" y="63" />
              <mxPoint x="1010" y="50" />
              <mxPoint x="1110" y="50" />
              <mxPoint x="1210" y="50" />
              <mxPoint x="1370" y="73" />
            </Array>
          </mxGeometry>
        </mxCell>
        <mxCell id="jdVaecQ7j_w1OCTPGQky-21" value="&lt;b&gt;&lt;font style=&quot;font-size: 18px;&quot;&gt;+&lt;/font&gt;&lt;/b&gt;" style="text;html=1;align=center;verticalAlign=middle;resizable=0;points=[];autosize=1;strokeColor=none;fillColor=none;" vertex="1" parent="1">
          <mxGeometry x="1065" y="13" width="30" height="40" as="geometry" />
        </mxCell>
        <mxCell id="jdVaecQ7j_w1OCTPGQky-22" value="" style="endArrow=classic;startArrow=classic;html=1;rounded=0;exitX=1;exitY=0.25;exitDx=0;exitDy=0;entryX=0;entryY=0.25;entryDx=0;entryDy=0;" edge="1" parent="1" source="jdVaecQ7j_w1OCTPGQky-4" target="jdVaecQ7j_w1OCTPGQky-9">
          <mxGeometry width="50" height="50" relative="1" as="geometry">
            <mxPoint x="832.5" y="173" as="sourcePoint" />
            <mxPoint x="1050" y="143" as="targetPoint" />
          </mxGeometry>
        </mxCell>
        <mxCell id="jdVaecQ7j_w1OCTPGQky-23" value="&lt;font style=&quot;font-size: 18px;&quot;&gt;&lt;b&gt;+&lt;/b&gt;&lt;/font&gt;" style="text;html=1;align=center;verticalAlign=middle;resizable=0;points=[];autosize=1;strokeColor=none;fillColor=none;" vertex="1" parent="1">
          <mxGeometry x="815" y="123" width="30" height="40" as="geometry" />
        </mxCell>
        <mxCell id="jdVaecQ7j_w1OCTPGQky-24" value="" style="endArrow=classic;startArrow=classic;html=1;rounded=0;entryX=0;entryY=0.25;entryDx=0;entryDy=0;exitX=1;exitY=0.25;exitDx=0;exitDy=0;" edge="1" parent="1" source="jdVaecQ7j_w1OCTPGQky-9" target="jdVaecQ7j_w1OCTPGQky-10">
          <mxGeometry width="50" height="50" relative="1" as="geometry">
            <mxPoint x="1300" y="168" as="sourcePoint" />
            <mxPoint x="1350" y="118" as="targetPoint" />
          </mxGeometry>
        </mxCell>
        <mxCell id="jdVaecQ7j_w1OCTPGQky-25" value="&lt;b&gt;&lt;font style=&quot;font-size: 18px;&quot;&gt;+&lt;/font&gt;&lt;/b&gt;" style="text;html=1;align=center;verticalAlign=middle;resizable=0;points=[];autosize=1;strokeColor=none;fillColor=none;" vertex="1" parent="1">
          <mxGeometry x="1315" y="93" width="30" height="40" as="geometry" />
        </mxCell>
        <mxCell id="jdVaecQ7j_w1OCTPGQky-26" value="" style="endArrow=classic;startArrow=classic;html=1;rounded=0;entryX=0;entryY=0.25;entryDx=0;entryDy=0;exitX=1;exitY=0.75;exitDx=0;exitDy=0;" edge="1" parent="1" source="jdVaecQ7j_w1OCTPGQky-4" target="jdVaecQ7j_w1OCTPGQky-5">
          <mxGeometry width="50" height="50" relative="1" as="geometry">
            <mxPoint x="600" y="260" as="sourcePoint" />
            <mxPoint x="650" y="210" as="targetPoint" />
          </mxGeometry>
        </mxCell>
        <mxCell id="jdVaecQ7j_w1OCTPGQky-27" value="&lt;b&gt;&lt;font style=&quot;font-size: 18px;&quot;&gt;+&lt;/font&gt;&lt;/b&gt;" style="text;html=1;align=center;verticalAlign=middle;resizable=0;points=[];autosize=1;strokeColor=none;fillColor=none;" vertex="1" parent="1">
          <mxGeometry x="665" y="203" width="30" height="40" as="geometry" />
        </mxCell>
        <mxCell id="jdVaecQ7j_w1OCTPGQky-28" value="" style="endArrow=classic;startArrow=classic;html=1;rounded=0;entryX=0;entryY=0.25;entryDx=0;entryDy=0;exitX=1;exitY=0.25;exitDx=0;exitDy=0;" edge="1" parent="1" source="jdVaecQ7j_w1OCTPGQky-5" target="jdVaecQ7j_w1OCTPGQky-8">
          <mxGeometry width="50" height="50" relative="1" as="geometry">
            <mxPoint x="960" y="280" as="sourcePoint" />
            <mxPoint x="1010" y="230" as="targetPoint" />
          </mxGeometry>
        </mxCell>
        <mxCell id="jdVaecQ7j_w1OCTPGQky-29" value="&lt;b&gt;&lt;font style=&quot;font-size: 18px;&quot;&gt;-&lt;/font&gt;&lt;/b&gt;" style="text;html=1;align=center;verticalAlign=middle;resizable=0;points=[];autosize=1;strokeColor=none;fillColor=none;" vertex="1" parent="1">
          <mxGeometry x="986" y="210" width="30" height="40" as="geometry" />
        </mxCell>
        <mxCell id="jdVaecQ7j_w1OCTPGQky-30" value="" style="endArrow=classic;startArrow=classic;html=1;rounded=0;entryX=0;entryY=0.25;entryDx=0;entryDy=0;exitX=1;exitY=0.75;exitDx=0;exitDy=0;" edge="1" parent="1" source="jdVaecQ7j_w1OCTPGQky-5" target="jdVaecQ7j_w1OCTPGQky-16">
          <mxGeometry width="50" height="50" relative="1" as="geometry">
            <mxPoint x="960" y="307" as="sourcePoint" />
            <mxPoint x="1010" y="257" as="targetPoint" />
          </mxGeometry>
        </mxCell>
        <mxCell id="jdVaecQ7j_w1OCTPGQky-31" value="&lt;font style=&quot;font-size: 18px;&quot;&gt;&lt;b&gt;-&lt;/b&gt;&lt;/font&gt;" style="text;html=1;align=center;verticalAlign=middle;resizable=0;points=[];autosize=1;strokeColor=none;fillColor=none;" vertex="1" parent="1">
          <mxGeometry x="995" y="283" width="30" height="40" as="geometry" />
        </mxCell>
        <mxCell id="jdVaecQ7j_w1OCTPGQky-33" value="" style="curved=1;endArrow=classic;html=1;rounded=0;entryX=0;entryY=0.25;entryDx=0;entryDy=0;startArrow=classic;startFill=1;exitX=1;exitY=0.5;exitDx=0;exitDy=0;" edge="1" parent="1" source="jdVaecQ7j_w1OCTPGQky-5" target="jdVaecQ7j_w1OCTPGQky-7">
          <mxGeometry width="50" height="50" relative="1" as="geometry">
            <mxPoint x="950" y="260" as="sourcePoint" />
            <mxPoint x="1380" y="313" as="targetPoint" />
            <Array as="points">
              <mxPoint x="1330" y="313" />
            </Array>
          </mxGeometry>
        </mxCell>
        <mxCell id="jdVaecQ7j_w1OCTPGQky-34" value="&lt;b&gt;&lt;font style=&quot;font-size: 18px;&quot;&gt;-&lt;/font&gt;&lt;/b&gt;" style="text;html=1;align=center;verticalAlign=middle;resizable=0;points=[];autosize=1;strokeColor=none;fillColor=none;" vertex="1" parent="1">
          <mxGeometry x="1220" y="270" width="30" height="40" as="geometry" />
        </mxCell>
        <mxCell id="jdVaecQ7j_w1OCTPGQky-35" value="" style="curved=1;endArrow=classic;html=1;rounded=0;entryX=0;entryY=0.25;entryDx=0;entryDy=0;startArrow=classic;startFill=1;exitX=0.968;exitY=0.95;exitDx=0;exitDy=0;exitPerimeter=0;" edge="1" parent="1" source="jdVaecQ7j_w1OCTPGQky-5" target="jdVaecQ7j_w1OCTPGQky-6">
          <mxGeometry width="50" height="50" relative="1" as="geometry">
            <mxPoint x="930" y="300" as="sourcePoint" />
            <mxPoint x="985" y="363" as="targetPoint" />
            <Array as="points">
              <mxPoint x="950" y="370" />
            </Array>
          </mxGeometry>
        </mxCell>
        <mxCell id="jdVaecQ7j_w1OCTPGQky-36" value="&lt;b&gt;&lt;font style=&quot;font-size: 18px;&quot;&gt;+&lt;/font&gt;&lt;/b&gt;" style="text;html=1;align=center;verticalAlign=middle;resizable=0;points=[];autosize=1;strokeColor=none;fillColor=none;" vertex="1" parent="1">
          <mxGeometry x="995" y="343" width="30" height="40" as="geometry" />
        </mxCell>
      </root>
    </mxGraphModel>
  </diagram>
</mxfile>
